<?xml version="1.0" encoding="UTF-8"?>
<!-- Generator: Adobe Illustrator 26.1.0, SVG Export Plug-In . SVG Version: 6.00 Build 0)  -->
<svg version="1.1" id="Layer_1" xmlns="http://www.w3.org/2000/svg" xmlns:xlink="http://www.w3.org/1999/xlink" x="0px" y="0px" viewBox="0 0 284.5 86.34" style="enable-background:new 0 0 284.5 86.34;" xml:space="preserve">
<style type="text/css">
	.st0{fill:#FFFFFF;}
	.st1{fill:#ED1B24;}
	.st2{fill:#061B46;}
</style>
<path class="st0" d="M4.52,71.15h3.4c2.13,0,3.58,1.09,3.58,3.24c0,2.5-2.15,3.37-4,3.37H5.89L5.82,82.4h-1.4L4.52,71.15z   M5.87,76.68h1.79c1.19,0,2.44-0.67,2.44-2.29c0-1.2-0.68-2.26-2.5-2.26H5.9L5.87,76.68z"/>
<path class="st0" d="M19.63,82.04c-0.46,0.36-0.94,0.58-1.51,0.58c-0.73,0-1.14-0.67-1.2-1.35c-0.62,0.76-1.4,1.35-2.44,1.35  c-1.43,0-2.34-0.97-2.34-2.34c0-2.29,2.96-2.83,4.73-2.9c0.02-0.34,0.03-0.68,0.03-1.02c0-0.7-0.38-1.22-1.24-1.22  c-0.63,0-1.16,0.23-2.34,1.12l-0.54-0.85c1.63-1.06,2.15-1.35,3.32-1.35c1.35,0,2.03,0.8,2.03,2.05c0,1.53-0.13,2.94-0.13,4.38  c0,0.59,0.08,1.16,0.59,1.16c0.28,0,0.47-0.13,0.68-0.28L19.63,82.04z M16.86,78.17c-2.26,0.29-3.43,0.72-3.43,2.1  c0,0.91,0.55,1.38,1.45,1.38c0.8,0,1.42-0.57,1.92-1.19L16.86,78.17z"/>
<path class="st0" d="M20.14,85.26c1.27,0,1.63-0.29,1.97-1.06l0.88-1.94l-3.01-7.81l1.4-0.39l2.24,6.59h0.03l2.46-6.59l1.29,0.39  l-3.61,8.95c-0.91,2.23-1.38,2.83-3.12,2.83h-0.52V85.26z"/>
<path class="st0" d="M28.71,74.3h1.32l-0.02,1.19h0.03c0.67-0.81,1.58-1.42,2.67-1.42c1.01,0,1.82,0.5,2.03,1.5  c0.7-0.76,1.79-1.5,2.81-1.5c1.68,0,2.28,0.96,2.28,2.46c0,0.62-0.02,1.24-0.02,1.85l-0.03,4.02h-1.3l0.03-3.64  c0-0.71,0.02-1.43,0.02-2.23c0-0.88-0.59-1.28-1.29-1.28c-0.96,0-1.66,0.59-2.31,1.35l-0.1,5.81h-1.29l0.03-3.64  c0-0.71,0.02-1.43,0.02-2.23c0-0.88-0.59-1.28-1.29-1.28c-0.96,0-1.66,0.59-2.31,1.35l-0.1,5.81h-1.3L28.71,74.3z"/>
<path class="st0" d="M42.75,78.17v0.28c0,1.69,0.63,3.21,2.29,3.21c0.93,0,1.61-0.54,2.31-1.17l0.63,0.7  c-0.83,0.83-1.89,1.45-3.09,1.45c-2.24,0-3.55-1.63-3.55-4.28c0-2.23,1.53-4.28,3.71-4.28s3.12,1.66,3.12,3.84v0.26H42.75z   M46.88,77.29c0-1.15-0.49-2.24-1.8-2.24c-1.22,0-2,1.14-2.21,2.24H46.88z"/>
<path class="st0" d="M49.74,74.3h1.3L51,75.6h0.03c0.68-0.98,1.79-1.53,2.75-1.53c1.87,0,2.47,0.96,2.47,2.46  c0,0.62-0.02,1.24-0.02,1.85L56.2,82.4h-1.3l0.03-3.64c0-0.71,0.02-1.43,0.02-2.23c0-0.88-0.58-1.28-1.48-1.28  c-0.85,0-1.59,0.49-2.42,1.5l-0.07,5.66h-1.3L49.74,74.3z"/>
<path class="st0" d="M58.86,74.3l0.03-2.99h1.3l-0.03,2.99h2.21v0.98h-2.23l-0.03,3.32c-0.02,0.91-0.02,1.51-0.02,1.92  c0,0.67,0.2,1.04,0.75,1.04c0.44,0,0.99-0.28,1.3-0.47l0.42,0.85c-0.54,0.36-1.32,0.7-2.03,0.7c-1.25,0-1.74-0.78-1.74-2.06  c0-0.54,0-1.2,0.02-2.33l0.03-2.96h-1.38V74.3H58.86z"/>
<path class="st0" d="M69.11,71.15h1.4v1.46h-1.4V71.15z M69.17,74.3h1.3l-0.07,8.1h-1.3L69.17,74.3z"/>
<path class="st0" d="M72.91,74.3h1.3l-0.05,1.3h0.03c0.68-0.98,1.79-1.53,2.75-1.53c1.87,0,2.47,0.96,2.47,2.46  c0,0.62-0.02,1.24-0.02,1.85l-0.03,4.02h-1.3l0.03-3.64c0-0.71,0.02-1.43,0.02-2.23c0-0.88-0.58-1.28-1.48-1.28  c-0.85,0-1.59,0.49-2.42,1.5l-0.07,5.66h-1.3L72.91,74.3z"/>
<path class="st0" d="M81.61,74.3h1.3l-0.05,1.3h0.03c0.68-0.98,1.79-1.53,2.75-1.53c1.87,0,2.47,0.96,2.47,2.46  c0,0.62-0.02,1.24-0.02,1.85l-0.03,4.02h-1.3l0.03-3.64c0-0.71,0.02-1.43,0.02-2.23c0-0.88-0.58-1.28-1.48-1.28  c-0.85,0-1.59,0.49-2.42,1.5l-0.07,5.66h-1.3L81.61,74.3z"/>
<path class="st0" d="M93.7,74.07c2.38,0,3.79,1.63,3.79,4.28c0,2.1-1.38,4.28-3.95,4.28c-2.38,0-3.79-1.61-3.79-4.28  C89.75,76.25,91.13,74.07,93.7,74.07z M93.55,81.65c1.22,0,2.54-1.06,2.54-3.3c0-2.24-1.09-3.3-2.41-3.3c-1.22,0-2.54,1.06-2.54,3.3  C91.15,80.6,92.24,81.65,93.55,81.65z"/>
<path class="st0" d="M105.97,74.46l-3.27,7.94h-1.27l-2.98-7.97l1.35-0.36l2.29,6.77h0.03l2.54-6.77L105.97,74.46z"/>
<path class="st0" d="M114.08,82.04c-0.46,0.36-0.94,0.58-1.51,0.58c-0.73,0-1.14-0.67-1.2-1.35c-0.62,0.76-1.4,1.35-2.44,1.35  c-1.43,0-2.34-0.97-2.34-2.34c0-2.29,2.96-2.83,4.73-2.9c0.02-0.34,0.03-0.68,0.03-1.02c0-0.7-0.38-1.22-1.24-1.22  c-0.63,0-1.16,0.23-2.34,1.12l-0.54-0.85c1.63-1.06,2.15-1.35,3.32-1.35c1.35,0,2.03,0.8,2.03,2.05c0,1.53-0.13,2.94-0.13,4.38  c0,0.59,0.08,1.16,0.59,1.16c0.28,0,0.47-0.13,0.68-0.28L114.08,82.04z M111.31,78.17c-2.26,0.29-3.43,0.72-3.43,2.1  c0,0.91,0.55,1.38,1.45,1.38c0.8,0,1.42-0.57,1.92-1.19L111.31,78.17z"/>
<path class="st0" d="M115.82,74.3l0.03-2.99h1.3l-0.03,2.99h2.21v0.98h-2.23l-0.03,3.32c-0.02,0.91-0.02,1.51-0.02,1.92  c0,0.67,0.2,1.04,0.75,1.04c0.44,0,0.99-0.28,1.3-0.47l0.42,0.85c-0.54,0.36-1.32,0.7-2.03,0.7c-1.25,0-1.74-0.78-1.74-2.06  c0-0.54,0-1.2,0.02-2.33l0.03-2.96h-1.38V74.3H115.82z"/>
<path class="st0" d="M120.81,71.15h1.4v1.46h-1.4V71.15z M120.87,74.3h1.3l-0.07,8.1h-1.3L120.87,74.3z"/>
<path class="st0" d="M127.67,74.07c2.38,0,3.79,1.63,3.79,4.28c0,2.1-1.38,4.28-3.95,4.28c-2.38,0-3.79-1.61-3.79-4.28  C123.72,76.25,125.1,74.07,127.67,74.07z M127.52,81.65c1.22,0,2.54-1.06,2.54-3.3c0-2.24-1.09-3.3-2.41-3.3  c-1.22,0-2.54,1.06-2.54,3.3C125.12,80.6,126.21,81.65,127.52,81.65z"/>
<path class="st0" d="M133,74.3h1.3l-0.05,1.3h0.03c0.68-0.98,1.79-1.53,2.75-1.53c1.87,0,2.47,0.96,2.47,2.46  c0,0.62-0.02,1.24-0.02,1.85l-0.03,4.02h-1.3l0.03-3.64c0-0.71,0.02-1.43,0.02-2.23c0-0.88-0.58-1.28-1.48-1.28  c-0.85,0-1.59,0.49-2.42,1.5l-0.07,5.66h-1.3L133,74.3z"/>
<path class="st0" d="M146.07,74.3h1.58c0-0.47,0.02-1.02,0.07-1.56c0.18-1.98,1.54-2.67,3.4-2.67v1.07h-0.57  c-1.09,0-1.56,0.88-1.59,1.85l-0.05,1.3h2.21v0.98h-2.16l-0.07,7.12h-1.3l0.07-7.12h-1.58V74.3z"/>
<path class="st0" d="M152.43,74.3h1.33l-0.02,1.58l0.03,0.03c0.28-0.73,1.07-1.84,2.25-1.84c0.28,0,0.52,0.05,0.7,0.11l-0.39,1.24  c-0.13-0.03-0.33-0.08-0.5-0.08c-0.54,0-1.4,0.44-2.1,1.74l-0.07,5.32h-1.3L152.43,74.3z"/>
<path class="st0" d="M160.76,74.07c2.38,0,3.79,1.63,3.79,4.28c0,2.1-1.38,4.28-3.95,4.28c-2.38,0-3.79-1.61-3.79-4.28  C156.81,76.25,158.19,74.07,160.76,74.07z M160.61,81.65c1.22,0,2.54-1.06,2.54-3.3c0-2.24-1.09-3.3-2.41-3.3  c-1.22,0-2.54,1.06-2.54,3.3C158.21,80.6,159.3,81.65,160.61,81.65z"/>
<path class="st0" d="M166.19,74.3h1.32l-0.02,1.19h0.03c0.67-0.81,1.58-1.42,2.67-1.42c1.01,0,1.82,0.5,2.03,1.5  c0.7-0.76,1.79-1.5,2.81-1.5c1.68,0,2.28,0.96,2.28,2.46c0,0.62-0.02,1.24-0.02,1.85l-0.03,4.02h-1.3l0.03-3.64  c0-0.71,0.02-1.43,0.02-2.23c0-0.88-0.59-1.28-1.29-1.28c-0.96,0-1.66,0.59-2.31,1.35l-0.1,5.81h-1.29l0.03-3.64  c0-0.71,0.02-1.43,0.02-2.23c0-0.88-0.59-1.28-1.29-1.28c-0.96,0-1.66,0.59-2.31,1.35l-0.1,5.81h-1.3L166.19,74.3z"/>
<path class="st0" d="M185.29,74.3l0.03-2.99h1.3l-0.03,2.99h2.21v0.98h-2.23l-0.03,3.32c-0.02,0.91-0.02,1.51-0.02,1.92  c0,0.67,0.2,1.04,0.75,1.04c0.44,0,0.99-0.28,1.3-0.47l0.42,0.85c-0.54,0.36-1.32,0.7-2.03,0.7c-1.25,0-1.74-0.78-1.74-2.06  c0-0.54,0-1.2,0.02-2.33l0.03-2.96h-1.38V74.3H185.29z"/>
<path class="st0" d="M190.25,70.2h1.35l-0.07,5.37h0.03c0.65-0.94,1.76-1.5,2.72-1.5c1.87,0,2.47,0.96,2.47,2.46  c0,0.62-0.02,1.24-0.02,1.85l-0.03,4.02h-1.3l0.03-3.64c0-0.71,0.02-1.43,0.02-2.23c0-0.88-0.59-1.28-1.48-1.28  c-0.85,0-1.59,0.49-2.42,1.5l-0.07,5.66h-1.3L190.25,70.2z"/>
<path class="st0" d="M199.82,78.17v0.28c0,1.69,0.63,3.21,2.29,3.21c0.93,0,1.61-0.54,2.31-1.17l0.63,0.7  c-0.83,0.83-1.89,1.45-3.09,1.45c-2.24,0-3.55-1.63-3.55-4.28c0-2.23,1.53-4.28,3.71-4.28s3.12,1.66,3.12,3.84v0.26H199.82z   M203.95,77.29c0-1.15-0.49-2.24-1.8-2.24c-1.22,0-2,1.14-2.21,2.24H203.95z"/>
<path class="st1" d="M210.6,84.84c1.11-0.08,1.27-0.34,1.29-2.13l0.06-8.51h1.99l-0.07,8.69c-0.02,2.62-0.57,3.45-3.27,3.45V84.84z   M211.97,71.15h1.98l-0.02,1.92h-1.99L211.97,71.15z"/>
<path class="st1" d="M216.53,71.15h3.17c2.94,0,4.12,1.33,4.12,3.43c0,2.31-1.92,3.42-4.1,3.42h-1.16l-0.02,4.41h-2.13L216.53,71.15  z M219.65,76.3c1.12,0,1.99-0.68,1.99-1.74c0-0.68-0.39-1.72-1.9-1.72h-1.11l-0.03,3.46H219.65z"/>
<path class="st1" d="M230.99,70.92c3.64,0,6.03,2.57,6.03,5.86s-2.62,5.85-6.03,5.85s-6.03-2.44-6.03-5.85  C224.95,73.49,227.64,70.92,230.99,70.92z M230.99,80.94c2.33,0,3.86-1.94,3.86-4.16c0-2.39-1.53-4.16-3.86-4.16  c-1.89,0-3.86,1.55-3.86,4.16C227.13,79.23,228.66,80.94,230.99,80.94z"/>
<path class="st1" d="M239.19,80.17c0.52,0.36,1.37,0.76,1.98,0.76c1.15,0,1.81-0.73,1.81-1.63c-0.02-2.25-4.62-1.29-4.62-5.12  c0-1.84,1.5-3.27,3.76-3.27c1.12,0,2.21,0.39,3.17,0.94l-0.88,1.5c-0.68-0.37-1.32-0.75-2.13-0.75c-0.94,0-1.84,0.5-1.84,1.51  c0,2.21,4.72,1.51,4.72,5.11c0,1.92-1.55,3.4-3.73,3.4c-1.09,0-2.11-0.31-3.06-0.86L239.19,80.17z"/>
<path class="st0" d="M252.18,74.3l0.03-2.99h1.3l-0.03,2.99h2.21v0.98h-2.23l-0.03,3.32c-0.02,0.91-0.02,1.51-0.02,1.92  c0,0.67,0.2,1.04,0.75,1.04c0.44,0,0.99-0.28,1.3-0.47l0.42,0.85c-0.54,0.36-1.32,0.7-2.03,0.7c-1.25,0-1.74-0.78-1.74-2.06  c0-0.54,0-1.2,0.02-2.33l0.03-2.96h-1.38V74.3H252.18z"/>
<path class="st0" d="M257.89,78.17v0.28c0,1.69,0.63,3.21,2.29,3.21c0.93,0,1.61-0.54,2.31-1.17l0.63,0.7  c-0.83,0.83-1.89,1.45-3.09,1.45c-2.24,0-3.55-1.63-3.55-4.28c0-2.23,1.53-4.28,3.71-4.28s3.12,1.66,3.12,3.84v0.26H257.89z   M262.02,77.29c0-1.15-0.49-2.24-1.8-2.24c-1.22,0-2,1.14-2.21,2.24H262.02z"/>
<path class="st0" d="M272.12,82.04c-0.46,0.36-0.94,0.58-1.51,0.58c-0.73,0-1.14-0.67-1.2-1.35c-0.62,0.76-1.4,1.35-2.44,1.35  c-1.43,0-2.34-0.97-2.34-2.34c0-2.29,2.96-2.83,4.73-2.9c0.02-0.34,0.03-0.68,0.03-1.02c0-0.7-0.38-1.22-1.24-1.22  c-0.63,0-1.16,0.23-2.34,1.12l-0.54-0.85c1.63-1.06,2.15-1.35,3.32-1.35c1.35,0,2.03,0.8,2.03,2.05c0,1.53-0.13,2.94-0.13,4.38  c0,0.59,0.08,1.16,0.59,1.16c0.28,0,0.47-0.13,0.68-0.28L272.12,82.04z M269.36,78.17c-2.26,0.29-3.43,0.72-3.43,2.1  c0,0.91,0.55,1.38,1.45,1.38c0.8,0,1.42-0.57,1.92-1.19L269.36,78.17z"/>
<path class="st0" d="M273.38,74.3h1.32l-0.02,1.19h0.03c0.67-0.81,1.58-1.42,2.67-1.42c1.01,0,1.82,0.5,2.03,1.5  c0.7-0.76,1.79-1.5,2.81-1.5c1.68,0,2.28,0.96,2.28,2.46c0,0.62-0.02,1.24-0.02,1.85l-0.03,4.02h-1.3l0.03-3.64  c0-0.71,0.02-1.43,0.02-2.23c0-0.88-0.59-1.28-1.29-1.28c-0.96,0-1.66,0.59-2.31,1.35l-0.1,5.81h-1.29l0.03-3.64  c0-0.71,0.02-1.43,0.02-2.23c0-0.88-0.59-1.28-1.29-1.28c-0.96,0-1.66,0.59-2.31,1.35l-0.1,5.81h-1.3L273.38,74.3z"/>
<g>
	<path class="st2" d="M283.37,33.05C283.37,14.8,247.52,0,203.3,0c-36.2,0-66.77,9.92-76.68,23.53   c13.49-10.4,40.05-17.48,70.63-17.48c44.22,0,80.07,14.8,80.07,33.05c0,3.31-1.19,6.51-3.39,9.52   C279.95,43.99,283.37,38.68,283.37,33.05z"/>
</g>
<g>
	<path class="st1" d="M0,38.21v-4.23h3.71v-6.13h5.21v6.13h5.29v4.23H8.91v9.84c0,0.94,0.17,1.72,0.51,2.34   c0.34,0.62,1.09,0.93,2.27,0.93c0.35,0,0.73-0.04,1.15-0.11s0.78-0.18,1.1-0.33l0.18,4.15c-0.47,0.18-1.03,0.32-1.68,0.42   c-0.65,0.1-1.26,0.15-1.85,0.15c-1.41,0-2.56-0.2-3.44-0.59c-0.88-0.4-1.58-0.94-2.09-1.63c-0.52-0.69-0.87-1.48-1.06-2.38   c-0.19-0.9-0.29-1.86-0.29-2.89v-9.88H0z"/>
	<path class="st1" d="M18.04,33.97h5.07v3.53h0.09c0.59-1.24,1.41-2.23,2.47-3s2.29-1.15,3.71-1.15c0.21,0,0.43,0.01,0.66,0.02   s0.44,0.05,0.62,0.11v4.85c-0.35-0.09-0.65-0.15-0.9-0.18s-0.49-0.04-0.73-0.04c-1.21,0-2.18,0.22-2.91,0.66   c-0.74,0.44-1.31,0.97-1.72,1.59c-0.41,0.62-0.69,1.25-0.84,1.9c-0.15,0.65-0.22,1.16-0.22,1.54v11.34h-5.29V33.97z"/>
	<path class="st1" d="M46.67,52.46h-0.13c-0.53,0.94-1.38,1.71-2.56,2.32c-1.18,0.6-2.51,0.9-4.01,0.9c-0.85,0-1.74-0.11-2.67-0.33   c-0.93-0.22-1.78-0.59-2.56-1.1c-0.78-0.51-1.43-1.19-1.94-2.03s-0.77-1.88-0.77-3.11c0-1.59,0.45-2.85,1.34-3.79   c0.9-0.94,2.05-1.66,3.46-2.16c1.41-0.5,2.98-0.83,4.7-0.99c1.72-0.16,3.4-0.24,5.05-0.24v-0.53c0-1.32-0.48-2.3-1.43-2.93   c-0.96-0.63-2.1-0.95-3.42-0.95c-1.12,0-2.19,0.24-3.22,0.71c-1.03,0.47-1.88,1.04-2.56,1.72l-2.74-3.22   c1.21-1.12,2.59-1.96,4.17-2.51c1.57-0.56,3.17-0.84,4.79-0.84c1.88,0,3.43,0.26,4.65,0.79c1.22,0.53,2.18,1.22,2.89,2.07   c0.71,0.85,1.2,1.81,1.48,2.87c0.28,1.06,0.42,2.12,0.42,3.18v12.88h-4.94V52.46z M46.58,45.49h-1.19c-0.85,0-1.75,0.04-2.69,0.11   c-0.94,0.07-1.81,0.24-2.6,0.49c-0.79,0.25-1.46,0.6-1.99,1.06c-0.53,0.46-0.79,1.08-0.79,1.88c0,0.5,0.11,0.92,0.33,1.26   c0.22,0.34,0.51,0.61,0.86,0.82c0.35,0.21,0.75,0.35,1.19,0.44c0.44,0.09,0.88,0.13,1.32,0.13c1.82,0,3.21-0.49,4.15-1.46   c0.94-0.97,1.41-2.29,1.41-3.97V45.49z"/>
	<path class="st1" d="M56.84,33.97h5.03v3.4h0.09c0.47-1.06,1.29-1.99,2.45-2.8c1.16-0.81,2.54-1.21,4.12-1.21   c1.38,0,2.57,0.24,3.55,0.73c0.99,0.49,1.79,1.12,2.43,1.92c0.63,0.79,1.1,1.71,1.39,2.74s0.44,2.09,0.44,3.18v13.23h-5.29V43.41   c0-0.62-0.04-1.26-0.13-1.94c-0.09-0.68-0.28-1.29-0.57-1.83c-0.29-0.54-0.7-0.99-1.21-1.35c-0.52-0.35-1.2-0.53-2.05-0.53   c-0.85,0-1.59,0.17-2.21,0.51c-0.62,0.34-1.13,0.77-1.52,1.3c-0.4,0.53-0.7,1.14-0.9,1.83c-0.21,0.69-0.31,1.39-0.31,2.1v11.65   h-5.29V33.97z"/>
	<path class="st1" d="M94.12,39.62C93.65,39,93,38.47,92.18,38.01c-0.82-0.46-1.72-0.68-2.69-0.68c-0.85,0-1.63,0.18-2.34,0.53   c-0.71,0.35-1.06,0.94-1.06,1.76c0,0.82,0.39,1.41,1.17,1.74s1.92,0.68,3.42,1.04c0.79,0.18,1.59,0.41,2.4,0.71   c0.81,0.29,1.54,0.68,2.21,1.17c0.66,0.49,1.2,1.09,1.61,1.81s0.62,1.6,0.62,2.62c0,1.29-0.24,2.39-0.73,3.29   c-0.49,0.9-1.13,1.62-1.94,2.18c-0.81,0.56-1.75,0.96-2.82,1.21c-1.07,0.25-2.18,0.38-3.33,0.38c-1.65,0-3.25-0.3-4.81-0.9   c-1.56-0.6-2.85-1.46-3.88-2.58l3.48-3.26c0.59,0.76,1.35,1.4,2.29,1.9c0.94,0.5,1.99,0.75,3.13,0.75c0.38,0,0.77-0.04,1.17-0.13   c0.4-0.09,0.76-0.23,1.1-0.42s0.61-0.45,0.82-0.77c0.21-0.32,0.31-0.72,0.31-1.19c0-0.88-0.4-1.51-1.21-1.9   c-0.81-0.38-2.02-0.76-3.64-1.15c-0.79-0.18-1.57-0.4-2.32-0.68c-0.75-0.28-1.42-0.65-2.01-1.1c-0.59-0.46-1.06-1.02-1.41-1.7   c-0.35-0.68-0.53-1.51-0.53-2.51c0-1.18,0.24-2.19,0.73-3.04c0.48-0.85,1.12-1.55,1.92-2.1c0.79-0.54,1.69-0.95,2.69-1.21   c1-0.26,2.03-0.4,3.09-0.4c1.53,0,3.02,0.26,4.48,0.79c1.46,0.53,2.61,1.34,3.46,2.43L94.12,39.62z"/>
	<path class="st1" d="M115.25,52.46h-0.13c-0.53,0.94-1.38,1.71-2.56,2.32c-1.18,0.6-2.51,0.9-4.01,0.9c-0.85,0-1.74-0.11-2.67-0.33   c-0.93-0.22-1.78-0.59-2.56-1.1c-0.78-0.51-1.43-1.19-1.94-2.03s-0.77-1.88-0.77-3.11c0-1.59,0.45-2.85,1.34-3.79   c0.9-0.94,2.05-1.66,3.46-2.16c1.41-0.5,2.98-0.83,4.7-0.99c1.72-0.16,3.4-0.24,5.05-0.24v-0.53c0-1.32-0.48-2.3-1.43-2.93   c-0.96-0.63-2.1-0.95-3.42-0.95c-1.12,0-2.19,0.24-3.22,0.71c-1.03,0.47-1.88,1.04-2.56,1.72l-2.74-3.22   c1.21-1.12,2.59-1.96,4.17-2.51c1.57-0.56,3.17-0.84,4.79-0.84c1.88,0,3.43,0.26,4.65,0.79c1.22,0.53,2.18,1.22,2.89,2.07   c0.71,0.85,1.2,1.81,1.48,2.87c0.28,1.06,0.42,2.12,0.42,3.18v12.88h-4.94V52.46z M115.16,45.49h-1.19c-0.85,0-1.75,0.04-2.69,0.11   c-0.94,0.07-1.81,0.24-2.6,0.49c-0.79,0.25-1.46,0.6-1.99,1.06c-0.53,0.46-0.79,1.08-0.79,1.88c0,0.5,0.11,0.92,0.33,1.26   c0.22,0.34,0.51,0.61,0.86,0.82c0.35,0.21,0.75,0.35,1.19,0.44c0.44,0.09,0.88,0.13,1.32,0.13c1.82,0,3.21-0.49,4.15-1.46   c0.94-0.97,1.41-2.29,1.41-3.97V45.49z"/>
	<path class="st1" d="M139.69,39.84c-0.41-0.59-1.03-1.08-1.85-1.48c-0.82-0.4-1.66-0.6-2.51-0.6c-0.97,0-1.82,0.2-2.56,0.6   c-0.74,0.4-1.35,0.92-1.83,1.57s-0.85,1.38-1.08,2.18s-0.35,1.62-0.35,2.45s0.12,1.64,0.38,2.45c0.25,0.81,0.62,1.54,1.12,2.18   c0.5,0.65,1.12,1.17,1.88,1.57c0.75,0.4,1.62,0.6,2.62,0.6c0.82,0,1.65-0.16,2.47-0.49c0.82-0.32,1.48-0.79,1.99-1.41l3.31,3.35   c-0.88,0.94-2.01,1.67-3.37,2.18c-1.37,0.51-2.85,0.77-4.43,0.77c-1.56,0-3.04-0.25-4.43-0.75c-1.4-0.5-2.62-1.24-3.66-2.21   c-1.04-0.97-1.87-2.15-2.47-3.53c-0.6-1.38-0.9-2.96-0.9-4.72c0-1.71,0.3-3.25,0.9-4.63c0.6-1.38,1.42-2.56,2.45-3.53   c1.03-0.97,2.23-1.72,3.59-2.25s2.83-0.79,4.39-0.79c1.56,0,3.07,0.29,4.52,0.88c1.46,0.59,2.61,1.4,3.46,2.43L139.69,39.84z"/>
	<path class="st1" d="M144.85,38.21v-4.23h3.71v-6.13h5.21v6.13h5.29v4.23h-5.29v9.84c0,0.94,0.17,1.72,0.51,2.34   c0.34,0.62,1.09,0.93,2.27,0.93c0.35,0,0.73-0.04,1.15-0.11s0.78-0.18,1.1-0.33l0.18,4.15c-0.47,0.18-1.03,0.32-1.68,0.42   c-0.65,0.1-1.26,0.15-1.85,0.15c-1.41,0-2.56-0.2-3.44-0.59c-0.88-0.4-1.58-0.94-2.09-1.63c-0.52-0.69-0.87-1.48-1.06-2.38   c-0.19-0.9-0.29-1.86-0.29-2.89v-9.88H144.85z"/>
	<path class="st1" d="M162.23,26.78c0-0.85,0.32-1.6,0.95-2.23c0.63-0.63,1.43-0.95,2.4-0.95s1.79,0.3,2.45,0.9   c0.66,0.6,0.99,1.36,0.99,2.27s-0.33,1.67-0.99,2.27c-0.66,0.6-1.48,0.9-2.45,0.9s-1.77-0.32-2.4-0.95   C162.54,28.38,162.23,27.64,162.23,26.78z M162.98,33.97h5.29v21.17h-5.29V33.97z"/>
	<path class="st1" d="M174.57,21.8h5.29v33.35h-5.29V21.8z"/>
	<path class="st1" d="M185.64,26.78c0-0.85,0.32-1.6,0.95-2.23c0.63-0.63,1.43-0.95,2.4-0.95s1.79,0.3,2.45,0.9   c0.66,0.6,0.99,1.36,0.99,2.27s-0.33,1.67-0.99,2.27c-0.66,0.6-1.48,0.9-2.45,0.9s-1.77-0.32-2.4-0.95   C185.95,28.38,185.64,27.64,185.64,26.78z M186.39,33.97h5.29v21.17h-5.29V33.97z"/>
	<path class="st1" d="M195.08,38.21v-4.23h3.71v-6.13h5.21v6.13h5.29v4.23h-5.29v9.84c0,0.94,0.17,1.72,0.51,2.34   c0.34,0.62,1.09,0.93,2.27,0.93c0.35,0,0.73-0.04,1.15-0.11s0.78-0.18,1.1-0.33l0.18,4.15c-0.47,0.18-1.03,0.32-1.68,0.42   c-0.65,0.1-1.26,0.15-1.85,0.15c-1.41,0-2.56-0.2-3.44-0.59c-0.88-0.4-1.58-0.94-2.09-1.63c-0.52-0.69-0.87-1.48-1.06-2.38   c-0.19-0.9-0.29-1.86-0.29-2.89v-9.88H195.08z"/>
	<path class="st1" d="M210.44,33.97h5.87l5.91,15.39h0.09l5.25-15.39h5.51l-10.01,25.72c-0.38,0.97-0.79,1.83-1.24,2.58   s-0.97,1.38-1.59,1.9s-1.35,0.9-2.18,1.17s-1.85,0.4-3.02,0.4c-0.44,0-0.89-0.02-1.35-0.07s-0.92-0.12-1.39-0.24l0.44-4.59   c0.35,0.12,0.7,0.2,1.04,0.24s0.65,0.07,0.95,0.07c0.56,0,1.03-0.07,1.41-0.2c0.38-0.13,0.71-0.34,0.97-0.62s0.5-0.62,0.71-1.04   c0.21-0.41,0.43-0.9,0.66-1.46l1.06-2.69L210.44,33.97z"/>
</g>
</svg>